<svg xmlns="http://www.w3.org/2000/svg" width="1600" height="900" viewBox="0 0 1600 900">
  <defs>
    <linearGradient id="bg" x1="0" x2="1" y1="0" y2="1">
      <stop offset="0%" stop-color="#fdf2f8" />
      <stop offset="100%" stop-color="#ffffff" />
    </linearGradient>
    <style>
      text { font-family: "Inter", "Helvetica", "Arial", sans-serif; }
      .title { font-size: 28px; font-weight: 700; fill: #9d174d; }
      .caption { font-size: 18px; fill: #db2777; }
      .label { font-size: 16px; font-weight: 600; fill: #831843; }
      .body { font-size: 14px; fill: #9d174d; }
      .callout { font-size: 15px; font-weight: 600; fill: #be185d; }
      .callout-text { font-size: 13px; fill: #a21caf; }
    </style>
  </defs>
  <rect width="1600" height="900" fill="url(#bg)" />
  <rect x="900" y="80" width="560" height="720" rx="28" fill="#ffffff" stroke="#fbcfe8"/>
  <rect x="920" y="120" width="520" height="120" rx="18" fill="#fee2f2" stroke="#f9a8d4"/>
  <text x="940" y="160" class="title">Fallback guardrail engaged</text>
  <text x="940" y="198" class="caption">Drawer shows default scaffolding while signals load.</text>
  <rect x="920" y="260" width="520" height="140" rx="18" fill="#fff1f2" stroke="#fbcfe8"/>
  <text x="940" y="300" class="label">Detected signals</text>
  <text x="940" y="332" class="body">No personalized signals available yet.</text>
  <text x="940" y="360" class="body">Guidance card explains how to populate the list.</text>
  <rect x="920" y="420" width="520" height="200" rx="18" fill="#ffffff" stroke="#fbcfe8"/>
  <text x="940" y="458" class="label">Baseline knobs preserved</text>
  <text x="940" y="490" class="body">Approval chain length: 1</text>
  <text x="940" y="518" class="body">Integration mode: Multi tool (default)</text>
  <text x="940" y="546" class="body">Copy tone: Collaborative baseline</text>
  <text x="940" y="574" class="body">Invite strategy: Immediate</text>
  <rect x="920" y="640" width="520" height="140" rx="18" fill="#fdf2f8" stroke="#fbcfe8"/>
  <text x="940" y="676" class="label">Preview messaging</text>
  <text x="940" y="708" class="body">Helper text clarifies that defaults will update once AI signals arrive.</text>
  <rect x="220" y="160" width="420" height="160" rx="22" fill="#a21caf" opacity="0.14"/>
  <text x="240" y="210" class="callout">1. Guardrail state</text>
  <text x="240" y="240" class="callout-text">Explains to reviewers that merge safeguards are active.</text>
  <line x1="620" y1="230" x2="920" y2="320" stroke="#a21caf" stroke-width="2" stroke-dasharray="6 6"/>
  <rect x="260" y="360" width="360" height="200" rx="22" fill="#db2777" opacity="0.12"/>
  <text x="280" y="410" class="callout" fill="#be185d">2. Empty state copy</text>
  <text x="280" y="440" class="callout-text" fill="#be185d">Callout instructs PMs how to narrate the fallback experience.</text>
  <line x1="580" y1="440" x2="920" y2="470" stroke="#be185d" stroke-width="2" stroke-dasharray="5 5"/>
  <rect x="240" y="620" width="380" height="200" rx="22" fill="#fb7185" opacity="0.12"/>
  <text x="260" y="670" class="callout" fill="#be123c">3. Reset disabled</text>
  <text x="260" y="702" class="callout-text" fill="#be123c">Since defaults hold, the reset button is inactive—note for demo script.</text>
  <line x1="600" y1="700" x2="920" y2="720" stroke="#be123c" stroke-width="2" stroke-dasharray="4 6"/>
</svg>
